<svg width="15" height="15" viewBox="0 0 15 15" fill="none" xmlns="http://www.w3.org/2000/svg">
<path d="M7.8 3.40625C9.76875 3.40625 11.3938 5.03125 11.3938 7C11.3938 9 9.76875 10.5938 7.8 10.5938C5.8 10.5938 4.20625 9 4.20625 7C4.20625 5.03125 5.8 3.40625 7.8 3.40625ZM7.8 9.34375C9.08125 9.34375 10.1125 8.3125 10.1125 7C10.1125 5.71875 9.08125 4.6875 7.8 4.6875C6.4875 4.6875 5.45625 5.71875 5.45625 7C5.45625 8.3125 6.51875 9.34375 7.8 9.34375ZM12.3625 3.28125C12.3625 3.75 11.9875 4.125 11.5188 4.125C11.05 4.125 10.675 3.75 10.675 3.28125C10.675 2.8125 11.05 2.4375 11.5188 2.4375C11.9875 2.4375 12.3625 2.8125 12.3625 3.28125ZM14.7375 4.125C14.8 5.28125 14.8 8.75 14.7375 9.90625C14.675 11.0312 14.425 12 13.6125 12.8438C12.8 13.6562 11.8 13.9062 10.675 13.9688C9.51875 14.0312 6.05 14.0312 4.89375 13.9688C3.76875 13.9062 2.8 13.6562 1.95625 12.8438C1.14375 12 0.893753 11.0312 0.831253 9.90625C0.768753 8.75 0.768753 5.28125 0.831253 4.125C0.893753 3 1.14375 2 1.95625 1.1875C2.8 0.375 3.76875 0.125 4.89375 0.0625C6.05 0 9.51875 0 10.675 0.0625C11.8 0.125 12.8 0.375 13.6125 1.1875C14.425 2 14.675 3 14.7375 4.125ZM13.2375 11.125C13.6125 10.2188 13.5188 8.03125 13.5188 7C13.5188 6 13.6125 3.8125 13.2375 2.875C12.9875 2.28125 12.5188 1.78125 11.925 1.5625C10.9875 1.1875 8.8 1.28125 7.8 1.28125C6.76875 1.28125 4.58125 1.1875 3.675 1.5625C3.05 1.8125 2.58125 2.28125 2.33125 2.875C1.95625 3.8125 2.05 6 2.05 7C2.05 8.03125 1.95625 10.2188 2.33125 11.125C2.58125 11.75 3.05 12.2188 3.675 12.4688C4.58125 12.8438 6.76875 12.75 7.8 12.75C8.8 12.75 10.9875 12.8438 11.925 12.4688C12.5188 12.2188 13.0188 11.75 13.2375 11.125Z" fill="#030E0F"/>
</svg>
