<svg width="15" height="14" viewBox="0 0 15 14" fill="none" xmlns="http://www.w3.org/2000/svg">
<path d="M3.52499 14H0.618744V4.65625H3.52499V14ZM2.05624 3.40625C1.14999 3.40625 0.399994 2.625 0.399994 1.6875C0.399994 0.78125 1.14999 0.03125 2.05624 0.03125C2.99374 0.03125 3.74374 0.78125 3.74374 1.6875C3.74374 2.625 2.99374 3.40625 2.05624 3.40625ZM14.3687 14H11.4937V9.46875C11.4937 8.375 11.4625 7 9.96249 7C8.46249 7 8.24374 8.15625 8.24374 9.375V14H5.33749V4.65625H8.11874V5.9375H8.14999C8.55624 5.21875 9.49374 4.4375 10.9 4.4375C13.8375 4.4375 14.4 6.375 14.4 8.875V14H14.3687Z" fill="#030E0F"/>
</svg>
