<svg width="26" height="30" viewBox="0 0 26 30" fill="none" xmlns="http://www.w3.org/2000/svg">
<path d="M12.8 16C13.68 16 14.4336 15.6864 15.0608 15.0592C15.6869 14.4331 16 13.68 16 12.8C16 11.92 15.6869 11.1664 15.0608 10.5392C14.4336 9.91307 13.68 9.6 12.8 9.6C11.92 9.6 11.1669 9.91307 10.5408 10.5392C9.9136 11.1664 9.6 11.92 9.6 12.8C9.6 13.68 9.9136 14.4331 10.5408 15.0592C11.1669 15.6864 11.92 16 12.8 16ZM17.7915 27.3743C15.0497 30.1817 10.5503 30.1818 7.8087 27.3742C5.91977 25.4398 4.37713 23.5881 3.1808 21.8192C1.06027 18.6864 0 15.7867 0 13.12C0 9.12 1.28693 5.93333 3.8608 3.56C6.4336 1.18667 9.41334 0 12.8 0C16.1867 0 19.1664 1.18667 21.7392 3.56C24.3131 5.93333 25.6 9.12 25.6 13.12C25.6 15.7867 24.5403 18.6864 22.4208 21.8192C21.2238 23.5882 19.6807 25.4399 17.7915 27.3743Z" fill="black"/>
</svg>
