<svg width="25" height="32" viewBox="0 0 25 32" fill="none" xmlns="http://www.w3.org/2000/svg">
<path d="M9.52538 13.6658L12.1314 11.2759C12.8445 10.6216 13.346 9.76927 13.5715 8.82809C13.7969 7.88691 13.7361 6.89983 13.3967 5.99346L12.2832 3.02073C11.8676 1.91155 11.0447 1.00259 9.98216 0.479116C8.91964 -0.0443607 7.69748 -0.142956 6.56479 0.203424C2.39712 1.4785 -0.806346 5.35229 0.17971 9.95347C0.828175 12.9796 2.06803 16.7781 4.42023 20.8207C6.39121 24.2254 8.87079 27.309 11.7732 29.9648C15.2583 33.1367 20.2372 32.3437 23.4407 29.3576C24.2994 28.557 24.8204 27.459 24.8976 26.2875C24.9748 25.1159 24.6022 23.9591 23.856 23.0527L21.8146 20.573C21.1994 19.8252 20.3747 19.2784 19.4465 19.0027C18.5182 18.7271 17.5287 18.7351 16.6051 19.0259L13.234 20.0885C13.1041 19.9549 12.9547 19.7958 12.7896 19.6124C12.0965 18.8457 11.4833 18.0104 10.9595 17.1194C10.45 16.2201 10.0333 15.2712 9.71603 14.2875C9.64822 14.0816 9.58465 13.8743 9.52538 13.6658Z" fill="black"/>
</svg>
