<svg width="18" height="12" viewBox="0 0 18 12" fill="none" xmlns="http://www.w3.org/2000/svg">
<path d="M17.3563 1.90625C17.7313 3.21875 17.7313 6.03125 17.7313 6.03125C17.7313 6.03125 17.7313 8.8125 17.3563 10.1562C17.1688 10.9062 16.575 11.4688 15.8563 11.6562C14.5125 12 9.20001 12 9.20001 12C9.20001 12 3.85626 12 2.51251 11.6562C1.79376 11.4688 1.20001 10.9062 1.01251 10.1562C0.637512 8.8125 0.637512 6.03125 0.637512 6.03125C0.637512 6.03125 0.637512 3.21875 1.01251 1.90625C1.20001 1.15625 1.79376 0.5625 2.51251 0.375C3.85626 0 9.20001 0 9.20001 0C9.20001 0 14.5125 0 15.8563 0.375C16.575 0.5625 17.1688 1.15625 17.3563 1.90625ZM7.45001 8.5625L11.8875 6.03125L7.45001 3.5V8.5625Z" fill="#030E0F"/>
</svg>
